<svg width="20" height="20" viewBox="0 0 20 20" fill="none" xmlns="http://www.w3.org/2000/svg">
<path d="M18.8889 4.49974C18.2351 4.7828 17.5236 4.98651 16.7908 5.06585C17.5517 4.61218 18.1214 3.89547 18.3932 3.05017C17.6792 3.47644 16.8971 3.77535 16.0815 3.93364C15.7406 3.56787 15.3283 3.27648 14.8703 3.07764C14.4123 2.87879 13.9184 2.77673 13.4194 2.77784C11.4004 2.77784 9.77671 4.4204 9.77671 6.43608C9.77671 6.71913 9.81089 7.00219 9.86644 7.27452C6.8433 7.11584 4.14704 5.66626 2.35452 3.44687C2.02791 4.00679 1.85675 4.64433 1.85886 5.29315C1.85886 6.5626 2.50194 7.68194 3.48259 8.34025C2.90468 8.31741 2.3403 8.15798 1.83536 7.87493V7.91996C1.83536 9.69762 3.08734 11.1708 4.75595 11.5096C4.44265 11.5913 4.12035 11.633 3.79666 11.634C3.55951 11.634 3.33518 11.6104 3.10871 11.5782C3.57019 13.0278 4.91405 14.0806 6.51428 14.115C5.26229 15.0992 3.69411 15.6782 1.99132 15.6782C1.6858 15.6782 1.40378 15.6675 1.11108 15.6331C2.72627 16.6731 4.64271 17.2736 6.70656 17.2736C13.4066 17.2736 17.0728 11.7026 17.0728 6.86709C17.0728 6.70841 17.0728 6.54973 17.0622 6.39105C17.7715 5.86997 18.3932 5.22453 18.8889 4.49974Z" fill="#545454"/>
</svg>
