<svg width="70" height="70" viewBox="0 0 70 70" fill="none" xmlns="http://www.w3.org/2000/svg">
<path d="M35 15.5556L21.3889 0H0L27.2222 33.0556L49.6242 23.8194L35 15.5556Z" fill="#55ACEE"/>
<path d="M48.6111 0L35 15.5556L45.4806 29.7733L47.8664 26.8781L70 0H48.6111Z" fill="#3B88C3"/>
<path d="M45.2275 31.1617C45.383 30.7397 45.4822 30.2906 45.4822 29.8142C45.4822 27.6675 43.74 25.9253 41.5933 25.9253H28.6297C26.4811 25.9253 24.7408 27.6675 24.7408 29.8142C24.7408 30.2906 24.838 30.7397 24.9955 31.1617C18.6605 34.7122 14.3711 41.4808 14.3711 49.2586C14.3711 60.7133 23.6558 70 35.1125 70C46.5672 70 55.8539 60.7133 55.8539 49.2586C55.8519 41.4808 51.5644 34.7122 45.2275 31.1617Z" fill="#FFAC33"/>
<path d="M35.1142 64.8142C43.7052 64.8142 50.6697 57.8498 50.6697 49.2587C50.6697 40.6676 43.7052 33.7031 35.1142 33.7031C26.5231 33.7031 19.5586 40.6676 19.5586 49.2587C19.5586 57.8498 26.5231 64.8142 35.1142 64.8142Z" fill="#FFD983"/>
<path d="M41.3741 59.5664C41.098 59.5664 40.8219 59.4808 40.5847 59.3116L35.0002 55.308L29.4177 59.3116C28.9413 59.6519 28.3036 59.6519 27.8311 59.3058C27.3586 58.9636 27.1602 58.355 27.3352 57.8008L29.4177 51.0808L23.8858 47.1822C23.4152 46.8361 23.2208 46.2255 23.3997 45.6694C23.5805 45.1153 24.0958 44.738 24.6811 44.7341L31.5333 44.7244L33.715 38.1716C33.8997 37.6175 34.4169 37.2441 35.0022 37.2441C35.5855 37.2441 36.1047 37.6175 36.2894 38.1716L38.4341 44.7244L45.3213 44.7341C45.9066 44.738 46.4238 45.1153 46.6027 45.6694C46.7836 46.2255 46.5872 46.8341 46.1166 47.1822L40.5827 51.0808L42.6652 57.8008C42.8441 58.3569 42.6419 58.9636 42.1713 59.3058C41.9322 59.4808 41.6522 59.5664 41.3741 59.5664Z" fill="#FFAC33"/>
</svg>
